<svg id="Layer_1" data-name="Layer 1" xmlns="http://www.w3.org/2000/svg" viewBox="0 0 61.03 61.97"><defs><style>.cls-1{fill:#1c1c2d;}.cls-2{fill:#ff6f00;}</style></defs><circle class="cls-1" cx="24.13" cy="25.41" r="0.28"/><circle class="cls-1" cx="23.61" cy="26.08" r="0.26"/><circle class="cls-1" cx="23.15" cy="26.79" r="0.23"/><circle class="cls-1" cx="22.77" cy="27.55" r="0.2"/><circle class="cls-1" cx="22.47" cy="28.34" r="0.17"/><circle class="cls-1" cx="22.24" cy="29.16" r="0.15"/><circle class="cls-1" cx="22.1" cy="29.99" r="0.12"/><circle class="cls-1" cx="22.04" cy="30.83" r="0.09"/><circle class="cls-1" cx="22.07" cy="31.68" r="0.07"/><path class="cls-1" d="M32.21,42a0,0,0,0,1,0,0,0,0,0,0,1-.06,0s0,0,0,0A0,0,0,0,1,32.21,42Z" transform="translate(-9.99 -9.51)"/><path class="cls-1" d="M32.38,42.85s0,0,0,0h0s0,0,0,0Z" transform="translate(-9.99 -9.51)"/><circle class="cls-2" cx="22.5" cy="33.74" r="0.28"/><circle class="cls-2" cx="22.82" cy="34.53" r="0.26"/><circle class="cls-2" cx="23.21" cy="35.28" r="0.23"/><circle class="cls-2" cx="23.67" cy="35.99" r="0.2"/><circle class="cls-2" cx="24.21" cy="36.65" r="0.17"/><circle class="cls-2" cx="24.8" cy="37.25" r="0.15"/><circle class="cls-2" cx="25.46" cy="37.79" r="0.12"/><circle class="cls-2" cx="26.16" cy="38.26" r="0.09"/><circle class="cls-2" cx="26.91" cy="38.65" r="0.06"/><circle class="cls-2" cx="27.69" cy="38.98" r="0.04"/><path class="cls-2" d="M38.49,48.73h0s0,0,0,0,0,0,0,0Z" transform="translate(-9.99 -9.51)"/><circle class="cls-1" cx="28.77" cy="39.28" r="0.28"/><circle class="cls-1" cx="29.6" cy="39.41" r="0.26"/><circle class="cls-1" cx="30.45" cy="39.46" r="0.23"/><circle class="cls-1" cx="31.3" cy="39.43" r="0.2"/><circle class="cls-1" cx="32.13" cy="39.31" r="0.17"/><circle class="cls-1" cx="32.96" cy="39.1" r="0.15"/><circle class="cls-1" cx="33.76" cy="38.82" r="0.12"/><circle class="cls-1" cx="34.52" cy="38.46" r="0.09"/><circle class="cls-1" cx="35.25" cy="38.02" r="0.06"/><path class="cls-1" d="M46,47a0,0,0,0,1,0,.05.05.05,0,0,1,0,0,.05.05,0,0,1,0,0S46,47,46,47Z" transform="translate(-9.99 -9.51)"/><path class="cls-1" d="M46.53,46.47h0s0,0,0,0Z" transform="translate(-9.99 -9.51)"/><circle class="cls-1" cx="38.61" cy="28.51" r="0.28"/><circle class="cls-1" cx="38.33" cy="27.71" r="0.26"/><circle class="cls-1" cx="37.96" cy="26.94" r="0.23"/><circle class="cls-1" cx="37.52" cy="26.22" r="0.2"/><circle class="cls-1" cx="37.01" cy="25.54" r="0.18"/><circle class="cls-1" cx="36.43" cy="24.92" r="0.15"/><circle class="cls-1" cx="35.8" cy="24.36" r="0.12"/><circle class="cls-1" cx="35.11" cy="23.87" r="0.1"/><path class="cls-1" d="M44.43,32.94a.08.08,0,0,1,0,.09A.07.07,0,0,1,44.3,33a.09.09,0,0,1,0-.09A.07.07,0,0,1,44.43,32.94Z" transform="translate(-9.99 -9.51)"/><path class="cls-1" d="M43.63,32.6s0,0,0,0a0,0,0,0,1-.06,0,.06.06,0,0,1,0-.06A0,0,0,0,1,43.63,32.6Z" transform="translate(-9.99 -9.51)"/><path class="cls-1" d="M42.81,32.34v0h0s0,0,0,0Z" transform="translate(-9.99 -9.51)"/><circle class="cls-2" cx="36.73" cy="36.75" r="0.28"/><circle class="cls-2" cx="37.27" cy="36.1" r="0.26"/><circle class="cls-2" cx="37.75" cy="35.4" r="0.23"/><circle class="cls-2" cx="38.15" cy="34.66" r="0.2"/><circle class="cls-2" cx="38.48" cy="33.88" r="0.17"/><circle class="cls-2" cx="38.73" cy="33.07" r="0.15"/><path class="cls-2" d="M49,41.71a.11.11,0,0,1-.08.15.11.11,0,0,1-.15-.07.12.12,0,0,1,.23-.08Z" transform="translate(-9.99 -9.51)"/><circle class="cls-2" cx="38.98" cy="31.39" r="0.09"/><path class="cls-2" d="M49,40a.07.07,0,0,1,0,.08s-.07,0-.08,0A.05.05,0,0,1,49,40,.07.07,0,0,1,49,40Z" transform="translate(-9.99 -9.51)"/><path class="cls-2" d="M48.92,39.21a0,0,0,1,1-.05,0S48.91,39.18,48.92,39.21Z" transform="translate(-9.99 -9.51)"/><path class="cls-2" d="M48.72,38.38s0,0,0,0h0S48.72,38.38,48.72,38.38Z" transform="translate(-9.99 -9.51)"/><circle class="cls-2" cx="32.29" cy="22.71" r="0.28"/><circle class="cls-2" cx="31.45" cy="22.57" r="0.26"/><circle class="cls-2" cx="30.61" cy="22.52" r="0.23"/><circle class="cls-2" cx="29.76" cy="22.55" r="0.2"/><circle class="cls-2" cx="28.92" cy="22.67" r="0.18"/><circle class="cls-2" cx="28.1" cy="22.87" r="0.15"/><circle class="cls-2" cx="27.3" cy="23.15" r="0.12"/><path class="cls-2" d="M36.62,33a.1.1,0,0,1-.06.12.1.1,0,0,1-.13-.06.11.11,0,0,1,.07-.12A.09.09,0,0,1,36.62,33Z" transform="translate(-9.99 -9.51)"/><circle class="cls-2" cx="25.81" cy="23.94" r="0.07"/><circle class="cls-2" cx="25.13" cy="24.45" r="0.04"/><circle class="cls-2" cx="24.5" cy="25.02" r="0.02"/><circle class="cls-1" cx="24.48" cy="23.76" r="0.31"/><circle class="cls-1" cx="23.79" cy="24.4" r="0.28"/><circle class="cls-1" cx="23.17" cy="25.11" r="0.25"/><circle class="cls-1" cx="22.62" cy="25.87" r="0.22"/><circle class="cls-1" cx="22.14" cy="26.68" r="0.19"/><circle class="cls-1" cx="21.75" cy="27.54" r="0.16"/><circle class="cls-1" cx="21.45" cy="28.43" r="0.13"/><circle class="cls-1" cx="21.24" cy="29.35" r="0.1"/><circle class="cls-1" cx="21.12" cy="30.28" r="0.07"/><path class="cls-1" d="M31.14,40.73a.05.05,0,0,1,0,.05s-.05,0-.05,0,0-.05,0-.05A.05.05,0,0,1,31.14,40.73Z" transform="translate(-9.99 -9.51)"/><path class="cls-1" d="M31.18,41.67s0,0,0,0h0v0S31.18,41.66,31.18,41.67Z" transform="translate(-9.99 -9.51)"/><circle class="cls-2" cx="21.24" cy="32.62" r="0.31"/><circle class="cls-2" cx="21.45" cy="33.54" r="0.28"/><circle class="cls-2" cx="21.75" cy="34.43" r="0.25"/><circle class="cls-2" cx="22.14" cy="35.29" r="0.22"/><circle class="cls-2" cx="22.61" cy="36.1" r="0.19"/><circle class="cls-2" cx="23.16" cy="36.87" r="0.16"/><circle class="cls-2" cx="23.78" cy="37.57" r="0.13"/><circle class="cls-2" cx="24.48" cy="38.21" r="0.1"/><circle class="cls-2" cx="25.23" cy="38.78" r="0.07"/><circle class="cls-2" cx="26.03" cy="39.27" r="0.04"/><path class="cls-2" d="M36.87,49.18h0Z" transform="translate(-9.99 -9.51)"/><circle class="cls-1" cx="27.16" cy="39.78" r="0.31"/><circle class="cls-1" cx="28.05" cy="40.08" r="0.28"/><circle class="cls-1" cx="28.97" cy="40.28" r="0.25"/><circle class="cls-1" cx="29.9" cy="40.38" r="0.22"/><circle class="cls-1" cx="30.85" cy="40.4" r="0.19"/><circle class="cls-1" cx="31.78" cy="40.32" r="0.16"/><circle class="cls-1" cx="32.71" cy="40.14" r="0.13"/><circle class="cls-1" cx="33.61" cy="39.88" r="0.1"/><circle class="cls-1" cx="34.49" cy="39.53" r="0.07"/><path class="cls-1" d="M45.35,48.59s0,0,0,0,0,0,0,0,0,0,0,0S45.35,48.57,45.35,48.59Z" transform="translate(-9.99 -9.51)"/><path class="cls-1" d="M46.08,48.09h0S46.08,48.09,46.08,48.09Z" transform="translate(-9.99 -9.51)"/><circle class="cls-1" cx="39.83" cy="29.67" r="0.31"/><circle class="cls-1" cx="39.66" cy="28.75" r="0.28"/><circle class="cls-1" cx="39.39" cy="27.84" r="0.25"/><circle class="cls-1" cx="39.03" cy="26.97" r="0.23"/><circle class="cls-1" cx="38.59" cy="26.14" r="0.2"/><circle class="cls-1" cx="38.06" cy="25.36" r="0.17"/><circle class="cls-1" cx="37.46" cy="24.64" r="0.14"/><circle class="cls-1" cx="36.79" cy="23.98" r="0.11"/><path class="cls-1" d="M46.13,32.89a.07.07,0,0,1-.07.08.06.06,0,0,1-.08-.06.08.08,0,1,1,.15,0Z" transform="translate(-9.99 -9.51)"/><path class="cls-1" d="M45.31,32.37s0,.05,0,.06-.05,0-.05,0,0,0,0-.06S45.31,32.35,45.31,32.37Z" transform="translate(-9.99 -9.51)"/><path class="cls-1" d="M44.45,31.94l0,0s0,0,0,0l0,0S44.45,31.93,44.45,31.94Z" transform="translate(-9.99 -9.51)"/><circle class="cls-2" cx="36.33" cy="38.39" r="0.31"/><circle class="cls-2" cx="37.04" cy="37.77" r="0.28"/><circle class="cls-2" cx="37.68" cy="37.09" r="0.25"/><circle class="cls-2" cx="38.26" cy="36.34" r="0.22"/><circle class="cls-2" cx="38.75" cy="35.54" r="0.19"/><circle class="cls-2" cx="39.17" cy="34.7" r="0.16"/><path class="cls-2" d="M49.62,43.31a.13.13,0,0,1-.11.15.14.14,0,0,1-.16-.11.13.13,0,0,1,.12-.15A.13.13,0,0,1,49.62,43.31Z" transform="translate(-9.99 -9.51)"/><circle class="cls-2" cx="39.73" cy="32.91" r="0.1"/><path class="cls-2" d="M49.94,41.48s0,.07-.06.08a.07.07,0,1,1,.06-.08Z" transform="translate(-9.99 -9.51)"/><path class="cls-2" d="M50,40.54a0,0,0,1,1-.05,0A0,0,0,0,1,50,40.54Z" transform="translate(-9.99 -9.51)"/><path class="cls-2" d="M49.89,39.61h0v0A0,0,0,0,1,49.89,39.61Z" transform="translate(-9.99 -9.51)"/><circle class="cls-2" cx="33.9" cy="22.21" r="0.31"/><circle class="cls-2" cx="33.01" cy="21.91" r="0.28"/><circle class="cls-2" cx="32.09" cy="21.71" r="0.25"/><circle class="cls-2" cx="31.16" cy="21.6" r="0.23"/><circle class="cls-2" cx="30.22" cy="21.58" r="0.2"/><circle class="cls-2" cx="29.28" cy="21.66" r="0.17"/><circle class="cls-2" cx="28.35" cy="21.83" r="0.14"/><path class="cls-2" d="M37.54,31.58a.11.11,0,0,1-.08.13.11.11,0,0,1,0-.22A.1.1,0,0,1,37.54,31.58Z" transform="translate(-9.99 -9.51)"/><circle class="cls-2" cx="26.57" cy="22.44" r="0.08"/><circle class="cls-2" cx="25.74" cy="22.87" r="0.05"/><circle class="cls-2" cx="24.95" cy="23.39" r="0.02"/><circle class="cls-1" cx="25.15" cy="22.01" r="0.35"/><circle class="cls-1" cx="24.28" cy="22.59" r="0.32"/><circle class="cls-1" cx="23.47" cy="23.26" r="0.28"/><circle class="cls-1" cx="22.74" cy="24" r="0.25"/><circle class="cls-1" cx="22.08" cy="24.81" r="0.22"/><circle class="cls-1" cx="21.5" cy="25.68" r="0.18"/><circle class="cls-1" cx="21.01" cy="26.61" r="0.15"/><circle class="cls-1" cx="20.62" cy="27.58" r="0.12"/><circle class="cls-1" cx="20.33" cy="28.58" r="0.08"/><path class="cls-1" d="M30.19,39.12a.05.05,0,0,1-.05.05.05.05,0,0,1,0-.1A.05.05,0,0,1,30.19,39.12Z" transform="translate(-9.99 -9.51)"/><path class="cls-1" d="M30.07,40.16a0,0,0,0,1,0,0s0,0,0,0h0Z" transform="translate(-9.99 -9.51)"/><circle class="cls-2" cx="20.06" cy="31.16" r="0.35"/><circle class="cls-2" cx="20.13" cy="32.21" r="0.31"/><circle class="cls-2" cx="20.3" cy="33.24" r="0.28"/><circle class="cls-2" cx="20.57" cy="34.25" r="0.25"/><circle class="cls-2" cx="20.95" cy="35.23" r="0.21"/><circle class="cls-2" cx="21.42" cy="36.16" r="0.18"/><circle class="cls-2" cx="21.98" cy="37.04" r="0.15"/><circle class="cls-2" cx="22.63" cy="37.86" r="0.11"/><circle class="cls-2" cx="23.36" cy="38.62" r="0.08"/><circle class="cls-2" cx="24.16" cy="39.29" r="0.04"/><path class="cls-2" d="M35,49.39h0Z" transform="translate(-9.99 -9.51)"/><circle class="cls-1" cx="25.3" cy="40.06" r="0.35"/><circle class="cls-1" cx="26.23" cy="40.53" r="0.31"/><circle class="cls-1" cx="27.2" cy="40.91" r="0.28"/><circle class="cls-1" cx="28.21" cy="41.19" r="0.25"/><circle class="cls-1" cx="29.24" cy="41.37" r="0.21"/><circle class="cls-1" cx="30.29" cy="41.45" r="0.18"/><circle class="cls-1" cx="31.33" cy="41.42" r="0.15"/><circle class="cls-1" cx="32.37" cy="41.29" r="0.11"/><circle class="cls-1" cx="33.39" cy="41.05" r="0.08"/><path class="cls-1" d="M44.42,50.22a0,0,0,0,1-.05.05,0,0,0,0,1,0-.05,0,0,0,0,1,0,0A0,0,0,0,1,44.42,50.22Z" transform="translate(-9.99 -9.51)"/><path class="cls-1" d="M45.3,49.8s0,0,0,0a0,0,0,0,1,0,0h0Z" transform="translate(-9.99 -9.51)"/><circle class="cls-1" cx="40.97" cy="31.16" r="0.35"/><circle class="cls-1" cx="40.94" cy="30.12" r="0.32"/><circle class="cls-1" cx="40.8" cy="29.08" r="0.28"/><circle class="cls-1" cx="40.56" cy="28.06" r="0.25"/><circle class="cls-1" cx="40.22" cy="27.07" r="0.22"/><circle class="cls-1" cx="39.78" cy="26.13" r="0.18"/><circle class="cls-1" cx="39.24" cy="25.23" r="0.15"/><circle class="cls-1" cx="38.62" cy="24.38" r="0.12"/><path class="cls-1" d="M48,33.12a.09.09,0,0,1-.09.09.09.09,0,0,1,0-.18A.09.09,0,0,1,48,33.12Z" transform="translate(-9.99 -9.51)"/><path class="cls-1" d="M47.19,32.42a0,0,0,0,1-.1,0,.05.05,0,1,1,.1,0Z" transform="translate(-9.99 -9.51)"/><path class="cls-1" d="M46.32,31.8a0,0,0,0,1,0,0l0,0s0,0,0,0S46.32,31.78,46.32,31.8Z" transform="translate(-9.99 -9.51)"/><circle class="cls-2" cx="35.61" cy="40.13" r="0.35"/><circle class="cls-2" cx="36.49" cy="39.57" r="0.32"/><circle class="cls-2" cx="37.32" cy="38.93" r="0.28"/><circle class="cls-2" cx="38.08" cy="38.21" r="0.25"/><circle class="cls-2" cx="38.76" cy="37.42" r="0.22"/><circle class="cls-2" cx="39.36" cy="36.56" r="0.18"/><path class="cls-2" d="M50,45.17a.15.15,0,0,1-.3,0,.15.15,0,0,1,.3,0Z" transform="translate(-9.99 -9.51)"/><circle class="cls-2" cx="40.3" cy="34.69" r="0.12"/><path class="cls-2" d="M50.69,43.21a.08.08,0,0,1-.08.08.07.07,0,0,1-.08-.08.08.08,0,0,1,.08-.08A.09.09,0,0,1,50.69,43.21Z" transform="translate(-9.99 -9.51)"/><path class="cls-2" d="M50.88,42.19a.05.05,0,1,1-.05,0A0,0,0,0,1,50.88,42.19Z" transform="translate(-9.99 -9.51)"/><path class="cls-2" d="M51,41.15h0v0Z" transform="translate(-9.99 -9.51)"/><circle class="cls-2" cx="35.76" cy="21.94" r="0.35"/><circle class="cls-2" cx="34.83" cy="21.46" r="0.32"/><circle class="cls-2" cx="33.86" cy="21.08" r="0.28"/><circle class="cls-2" cx="32.85" cy="20.79" r="0.25"/><circle class="cls-2" cx="31.82" cy="20.61" r="0.22"/><circle class="cls-2" cx="30.78" cy="20.53" r="0.18"/><circle class="cls-2" cx="29.73" cy="20.56" r="0.15"/><path class="cls-2" d="M38.81,30.2a.12.12,0,0,1-.12.12.12.12,0,1,1,0-.24A.12.12,0,0,1,38.81,30.2Z" transform="translate(-9.99 -9.51)"/><circle class="cls-2" cx="27.67" cy="20.92" r="0.09"/><circle class="cls-2" cx="26.68" cy="21.25" r="0.05"/><circle class="cls-2" cx="25.73" cy="21.69" r="0.02"/><circle class="cls-1" cx="26.19" cy="20.2" r="0.39"/><circle class="cls-1" cx="25.13" cy="20.69" r="0.35"/><circle class="cls-1" cx="24.13" cy="21.28" r="0.31"/><circle class="cls-1" cx="23.19" cy="21.96" r="0.28"/><circle class="cls-1" cx="22.33" cy="22.74" r="0.24"/><circle class="cls-1" cx="21.54" cy="23.6" r="0.2"/><circle class="cls-1" cx="20.85" cy="24.53" r="0.17"/><circle class="cls-1" cx="20.25" cy="25.52" r="0.13"/><circle class="cls-1" cx="19.76" cy="26.58" r="0.09"/><path class="cls-1" d="M29.42,37.19a.06.06,0,0,1-.06.05.06.06,0,1,1,.06-.05Z" transform="translate(-9.99 -9.51)"/><path class="cls-1" d="M29.11,38.32h0l0,0s0,0,0,0A0,0,0,0,1,29.11,38.32Z" transform="translate(-9.99 -9.51)"/><circle class="cls-2" cx="19.01" cy="29.36" r="0.39"/><circle class="cls-2" cx="18.9" cy="30.52" r="0.35"/><circle class="cls-2" cx="18.91" cy="31.68" r="0.31"/><circle class="cls-2" cx="19.04" cy="32.84" r="0.27"/><circle class="cls-2" cx="19.28" cy="33.98" r="0.24"/><circle class="cls-2" cx="19.64" cy="35.08" r="0.2"/><circle class="cls-2" cx="20.1" cy="36.15" r="0.16"/><circle class="cls-2" cx="20.67" cy="37.16" r="0.12"/><circle class="cls-2" cx="21.34" cy="38.11" r="0.09"/><circle class="cls-2" cx="22.09" cy="39" r="0.05"/><path class="cls-2" d="M32.92,49.3s0,0,0,0a0,0,0,0,1,0,0h0Z" transform="translate(-9.99 -9.51)"/><circle class="cls-1" cx="23.22" cy="40.03" r="0.39"/><circle class="cls-1" cx="24.15" cy="40.72" r="0.35"/><circle class="cls-1" cx="25.16" cy="41.31" r="0.31"/><circle class="cls-1" cx="26.21" cy="41.79" r="0.27"/><circle class="cls-1" cx="27.31" cy="42.16" r="0.24"/><circle class="cls-1" cx="28.45" cy="42.43" r="0.2"/><circle class="cls-1" cx="29.6" cy="42.58" r="0.16"/><circle class="cls-1" cx="30.76" cy="42.61" r="0.12"/><circle class="cls-1" cx="31.92" cy="42.53" r="0.09"/><path class="cls-1" d="M43.11,51.85s0,0-.06,0a0,0,0,0,1,0-.06s0,0,.06,0A.07.07,0,0,1,43.11,51.85Z" transform="translate(-9.99 -9.51)"/><path class="cls-1" d="M44.16,51.54h0Z" transform="translate(-9.99 -9.51)"/><circle class="cls-1" cx="41.96" cy="33" r="0.39"/><circle class="cls-1" cx="42.11" cy="31.85" r="0.35"/><circle class="cls-1" cx="42.13" cy="30.68" r="0.31"/><circle class="cls-1" cx="42.05" cy="29.52" r="0.28"/><circle class="cls-1" cx="41.84" cy="28.38" r="0.24"/><circle class="cls-1" cx="41.52" cy="27.26" r="0.21"/><circle class="cls-1" cx="41.09" cy="26.18" r="0.17"/><circle class="cls-1" cx="40.56" cy="25.15" r="0.13"/><path class="cls-1" d="M50,33.7c0,.06,0,.09-.11.08s-.08-.05-.08-.11a.11.11,0,0,1,.11-.08A.09.09,0,0,1,50,33.7Z" transform="translate(-9.99 -9.51)"/><path class="cls-1" d="M49.25,32.79s0,.06-.07.05,0,0,0-.07a.06.06,0,0,1,.12,0Z" transform="translate(-9.99 -9.51)"/><path class="cls-1" d="M48.4,32s0,0,0,0,0,0,0,0a0,0,0,0,1,0,0S48.4,32,48.4,32Z" transform="translate(-9.99 -9.51)"/><circle class="cls-2" cx="34.52" cy="41.9" r="0.39"/><circle class="cls-2" cx="35.59" cy="41.45" r="0.35"/><circle class="cls-2" cx="36.6" cy="40.89" r="0.31"/><circle class="cls-2" cx="37.56" cy="40.23" r="0.28"/><circle class="cls-2" cx="38.45" cy="39.48" r="0.24"/><circle class="cls-2" cx="39.26" cy="38.65" r="0.2"/><path class="cls-2" d="M50.13,47.27a.16.16,0,0,1-.18.14.16.16,0,0,1-.14-.19.17.17,0,0,1,.19-.14A.16.16,0,0,1,50.13,47.27Z" transform="translate(-9.99 -9.51)"/><circle class="cls-2" cx="40.61" cy="36.76" r="0.13"/><path class="cls-2" d="M51.21,45.25a.08.08,0,0,1-.1.07.09.09,0,0,1-.08-.1.1.1,0,0,1,.11-.08A.09.09,0,0,1,51.21,45.25Z" transform="translate(-9.99 -9.51)"/><path class="cls-2" d="M51.59,44.16a.05.05,0,0,1-.1,0,.06.06,0,0,1,.06,0A.06.06,0,0,1,51.59,44.16Z" transform="translate(-9.99 -9.51)"/><path class="cls-2" d="M51.86,43h0l0,0h0S51.87,43,51.86,43Z" transform="translate(-9.99 -9.51)"/><circle class="cls-2" cx="37.84" cy="21.97" r="0.39"/><circle class="cls-2" cx="36.91" cy="21.28" r="0.35"/><circle class="cls-2" cx="35.91" cy="20.69" r="0.31"/><circle class="cls-2" cx="34.85" cy="20.21" r="0.28"/><circle class="cls-2" cx="33.75" cy="19.83" r="0.24"/><circle class="cls-2" cx="32.62" cy="19.56" r="0.21"/><circle class="cls-2" cx="31.47" cy="19.41" r="0.17"/><path class="cls-2" d="M40.43,28.9a.13.13,0,1,1-.11-.15A.13.13,0,0,1,40.43,28.9Z" transform="translate(-9.99 -9.51)"/><circle class="cls-2" cx="29.15" cy="19.45" r="0.1"/><circle class="cls-2" cx="28" cy="19.64" r="0.06"/><circle class="cls-2" cx="26.88" cy="19.95" r="0.02"/><circle class="cls-1" cx="27.64" cy="18.4" r="0.43"/><circle class="cls-1" cx="26.4" cy="18.75" r="0.39"/><circle class="cls-1" cx="25.2" cy="19.22" r="0.35"/><circle class="cls-1" cx="24.05" cy="19.81" r="0.31"/><circle class="cls-1" cx="22.96" cy="20.51" r="0.27"/><circle class="cls-1" cx="21.96" cy="21.32" r="0.23"/><circle class="cls-1" cx="21.03" cy="22.22" r="0.18"/><circle class="cls-1" cx="20.2" cy="23.21" r="0.14"/><circle class="cls-1" cx="19.48" cy="24.28" r="0.1"/><path class="cls-1" d="M28.91,34.94a.05.05,0,0,1-.07,0,.06.06,0,0,1,0-.07s0,0,.08,0A0,0,0,0,1,28.91,34.94Z" transform="translate(-9.99 -9.51)"/><path class="cls-1" d="M28.38,36.12l0,0a0,0,0,0,1,0,0s0,0,0,0S28.38,36.11,28.38,36.12Z" transform="translate(-9.99 -9.51)"/><circle class="cls-2" cx="18.17" cy="27.21" r="0.43"/><circle class="cls-2" cx="17.85" cy="28.46" r="0.39"/><circle class="cls-2" cx="17.66" cy="29.74" r="0.35"/><circle class="cls-2" cx="17.6" cy="31.03" r="0.31"/><circle class="cls-2" cx="17.67" cy="32.32" r="0.26"/><circle class="cls-2" cx="17.87" cy="33.59" r="0.22"/><circle class="cls-2" cx="18.19" cy="34.84" r="0.18"/><circle class="cls-2" cx="18.64" cy="36.05" r="0.14"/><circle class="cls-2" cx="19.2" cy="37.21" r="0.1"/><circle class="cls-2" cx="19.88" cy="38.31" r="0.06"/><path class="cls-2" d="M30.65,48.84h0s0,0,0,0h0A0,0,0,0,1,30.65,48.84Z" transform="translate(-9.99 -9.51)"/><circle class="cls-1" cx="20.93" cy="39.65" r="0.43"/><circle class="cls-1" cx="21.84" cy="40.56" r="0.39"/><circle class="cls-1" cx="22.84" cy="41.38" r="0.35"/><circle class="cls-1" cx="23.92" cy="42.09" r="0.31"/><circle class="cls-1" cx="25.06" cy="42.7" r="0.26"/><circle class="cls-1" cx="26.26" cy="43.18" r="0.22"/><circle class="cls-1" cx="27.49" cy="43.55" r="0.18"/><circle class="cls-1" cx="28.76" cy="43.79" r="0.14"/><circle class="cls-1" cx="30.05" cy="43.9" r="0.1"/><path class="cls-1" d="M41.39,53.41a.05.05,0,0,1-.07,0,.06.06,0,0,1,0-.07.06.06,0,0,1,.07,0A.06.06,0,0,1,41.39,53.41Z" transform="translate(-9.99 -9.51)"/><path class="cls-1" d="M42.59,53.25h0s0,0,0,0Z" transform="translate(-9.99 -9.51)"/><circle class="cls-1" cx="42.72" cy="35.18" r="0.43"/><circle class="cls-1" cx="43.09" cy="33.94" r="0.39"/><circle class="cls-1" cx="43.32" cy="32.67" r="0.35"/><circle class="cls-1" cx="43.42" cy="31.39" r="0.31"/><circle class="cls-1" cx="43.4" cy="30.09" r="0.27"/><circle class="cls-1" cx="43.24" cy="28.81" r="0.23"/><circle class="cls-1" cx="42.96" cy="27.55" r="0.19"/><circle class="cls-1" cx="42.55" cy="26.33" r="0.15"/><path class="cls-1" d="M52.12,34.69a.1.1,0,1,1-.07-.13A.1.1,0,0,1,52.12,34.69Z" transform="translate(-9.99 -9.51)"/><path class="cls-1" d="M51.44,33.56a.06.06,0,1,1-.12,0,.06.06,0,0,1,.08,0A.07.07,0,0,1,51.44,33.56Z" transform="translate(-9.99 -9.51)"/><path class="cls-1" d="M50.65,32.5s0,0,0,0,0,0,0,0,0,0,0,0S50.66,32.48,50.65,32.5Z" transform="translate(-9.99 -9.51)"/><circle class="cls-2" cx="33.01" cy="43.66" r="0.43"/><circle class="cls-2" cx="34.26" cy="43.35" r="0.39"/><circle class="cls-2" cx="35.48" cy="42.91" r="0.35"/><circle class="cls-2" cx="36.64" cy="42.35" r="0.31"/><circle class="cls-2" cx="37.75" cy="41.69" r="0.27"/><circle class="cls-2" cx="38.78" cy="40.91" r="0.22"/><path class="cls-2" d="M49.89,49.61a.18.18,0,1,1-.11-.23A.17.17,0,0,1,49.89,49.61Z" transform="translate(-9.99 -9.51)"/><circle class="cls-2" cx="40.59" cy="39.07" r="0.14"/><path class="cls-2" d="M51.43,47.57a.1.1,0,0,1-.13.06.09.09,0,0,1-.06-.12.11.11,0,0,1,.13-.07A.1.1,0,0,1,51.43,47.57Z" transform="translate(-9.99 -9.51)"/><path class="cls-2" d="M52,46.44a.06.06,0,1,1,0-.08A.07.07,0,0,1,52,46.44Z" transform="translate(-9.99 -9.51)"/><path class="cls-2" d="M52.53,45.25s0,0,0,0,0,0,0,0,0,0,0,0S52.53,45.24,52.53,45.25Z" transform="translate(-9.99 -9.51)"/><circle class="cls-2" cx="40.12" cy="22.37" r="0.43"/><circle class="cls-2" cx="39.22" cy="21.45" r="0.39"/><circle class="cls-2" cx="38.22" cy="20.63" r="0.35"/><circle class="cls-2" cx="37.15" cy="19.91" r="0.31"/><circle class="cls-2" cx="36.01" cy="19.3" r="0.27"/><circle class="cls-2" cx="34.81" cy="18.81" r="0.23"/><circle class="cls-2" cx="33.58" cy="18.44" r="0.19"/><path class="cls-2" d="M42.44,27.76a.15.15,0,0,1-.19.09.14.14,0,0,1-.09-.18.15.15,0,0,1,.19-.1A.16.16,0,0,1,42.44,27.76Z" transform="translate(-9.99 -9.51)"/><circle class="cls-2" cx="31.02" cy="18.08" r="0.11"/><circle class="cls-2" cx="29.73" cy="18.1" r="0.07"/><circle class="cls-2" cx="28.45" cy="18.24" r="0.03"/><circle class="cls-1" cx="29.55" cy="16.67" r="0.48"/><circle class="cls-1" cx="28.12" cy="16.84" r="0.43"/><circle class="cls-1" cx="26.72" cy="17.15" r="0.39"/><circle class="cls-1" cx="25.36" cy="17.6" r="0.34"/><circle class="cls-1" cx="24.05" cy="18.18" r="0.3"/><circle class="cls-1" cx="22.8" cy="18.89" r="0.25"/><circle class="cls-1" cx="21.63" cy="19.72" r="0.2"/><circle class="cls-1" cx="20.55" cy="20.66" r="0.16"/><circle class="cls-1" cx="19.57" cy="21.7" r="0.11"/><path class="cls-1" d="M28.75,32.39a.08.08,0,0,1-.09,0,.07.07,0,0,1,0-.09.06.06,0,0,1,.09,0A.06.06,0,0,1,28.75,32.39Z" transform="translate(-9.99 -9.51)"/><path class="cls-1" d="M28,33.59h0s0,0,0,0a0,0,0,0,1,0,0S28,33.58,28,33.59Z" transform="translate(-9.99 -9.51)"/><circle class="cls-2" cx="17.62" cy="24.69" r="0.48"/><circle class="cls-2" cx="17.06" cy="26.01" r="0.43"/><circle class="cls-2" cx="16.63" cy="27.38" r="0.39"/><circle class="cls-2" cx="16.33" cy="28.78" r="0.34"/><circle class="cls-2" cx="16.19" cy="30.21" r="0.29"/><circle class="cls-2" cx="16.18" cy="31.65" r="0.25"/><circle class="cls-2" cx="16.32" cy="33.08" r="0.2"/><circle class="cls-2" cx="16.6" cy="34.48" r="0.15"/><circle class="cls-2" cx="17.02" cy="35.85" r="0.11"/><circle class="cls-2" cx="17.57" cy="37.18" r="0.06"/><path class="cls-2" d="M28.24,47.94s0,0,0,0,0,0,0,0,0,0,0,0S28.25,47.93,28.24,47.94Z" transform="translate(-9.99 -9.51)"/><circle class="cls-1" cx="18.49" cy="38.83" r="0.48"/><circle class="cls-1" cx="19.33" cy="39.99" r="0.43"/><circle class="cls-1" cx="20.29" cy="41.06" r="0.39"/><circle class="cls-1" cx="21.34" cy="42.03" r="0.34"/><circle class="cls-1" cx="22.49" cy="42.89" r="0.29"/><circle class="cls-1" cx="23.72" cy="43.63" r="0.25"/><circle class="cls-1" cx="25.02" cy="44.25" r="0.2"/><circle class="cls-1" cx="26.37" cy="44.73" r="0.15"/><circle class="cls-1" cx="27.76" cy="45.07" r="0.11"/><path class="cls-1" d="M39.23,54.82a.07.07,0,0,1-.08,0,.08.08,0,0,1,0-.09.05.05,0,0,1,.08,0A.06.06,0,0,1,39.23,54.82Z" transform="translate(-9.99 -9.51)"/><path class="cls-1" d="M40.58,54.86h0S40.58,54.85,40.58,54.86Z" transform="translate(-9.99 -9.51)"/><circle class="cls-1" cx="43.18" cy="37.71" r="0.48"/><circle class="cls-1" cx="43.8" cy="36.42" r="0.43"/><circle class="cls-1" cx="44.27" cy="35.06" r="0.39"/><circle class="cls-1" cx="44.61" cy="33.67" r="0.34"/><circle class="cls-1" cx="44.81" cy="32.25" r="0.3"/><circle class="cls-1" cx="44.86" cy="30.81" r="0.25"/><circle class="cls-1" cx="44.77" cy="29.38" r="0.21"/><circle class="cls-1" cx="44.54" cy="27.96" r="0.16"/><path class="cls-1" d="M54.26,36.15a.12.12,0,1,1,0-.16A.12.12,0,0,1,54.26,36.15Z" transform="translate(-9.99 -9.51)"/><path class="cls-1" d="M53.71,34.79a.07.07,0,1,1-.13-.07.07.07,0,0,1,.13.07Z" transform="translate(-9.99 -9.51)"/><path class="cls-1" d="M53,33.48s0,0,0,0,0,0,0,0a0,0,0,0,1,0,0A0,0,0,0,1,53,33.48Z" transform="translate(-9.99 -9.51)"/><circle class="cls-2" cx="31.05" cy="45.33" r="0.48"/><circle class="cls-2" cx="32.48" cy="45.2" r="0.43"/><circle class="cls-2" cx="33.89" cy="44.93" r="0.39"/><circle class="cls-2" cx="35.26" cy="44.53" r="0.34"/><circle class="cls-2" cx="36.59" cy="43.98" r="0.3"/><circle class="cls-2" cx="37.86" cy="43.31" r="0.25"/><path class="cls-2" d="M49.23,52.13a.21.21,0,0,1-.37-.19.21.21,0,0,1,.37.19Z" transform="translate(-9.99 -9.51)"/><circle class="cls-2" cx="40.16" cy="41.61" r="0.16"/><path class="cls-2" d="M51.27,50.16a.14.14,0,0,1-.16.05.11.11,0,0,1,0-.15.1.1,0,0,1,.15-.05A.12.12,0,0,1,51.27,50.16Z" transform="translate(-9.99 -9.51)"/><path class="cls-2" d="M52.13,49a.06.06,0,0,1-.09,0A.06.06,0,0,1,52,49a.08.08,0,0,1,.09,0A.07.07,0,0,1,52.13,49Z" transform="translate(-9.99 -9.51)"/><path class="cls-2" d="M52.88,47.8s0,0,0,0,0,0,0,0h0S52.88,47.79,52.88,47.8Z" transform="translate(-9.99 -9.51)"/><circle class="cls-2" cx="42.56" cy="23.2" r="0.48"/><circle class="cls-2" cx="41.72" cy="22.03" r="0.43"/><circle class="cls-2" cx="40.77" cy="20.96" r="0.39"/><circle class="cls-2" cx="39.72" cy="19.98" r="0.34"/><circle class="cls-2" cx="38.58" cy="19.12" r="0.3"/><circle class="cls-2" cx="37.35" cy="18.37" r="0.25"/><circle class="cls-2" cx="36.05" cy="17.75" r="0.21"/><path class="cls-2" d="M44.84,26.85a.16.16,0,1,1-.07-.22A.16.16,0,0,1,44.84,26.85Z" transform="translate(-9.99 -9.51)"/><circle class="cls-2" cx="33.31" cy="16.91" r="0.12"/><circle class="cls-2" cx="31.89" cy="16.71" r="0.07"/><circle class="cls-2" cx="30.46" cy="16.64" r="0.03"/><circle class="cls-1" cx="31.94" cy="15.11" r="0.53"/><circle class="cls-1" cx="30.35" cy="15.05" r="0.48"/><circle class="cls-1" cx="28.76" cy="15.15" r="0.43"/><circle class="cls-1" cx="27.19" cy="15.4" r="0.38"/><circle class="cls-1" cx="25.65" cy="15.81" r="0.33"/><circle class="cls-1" cx="24.15" cy="16.37" r="0.28"/><circle class="cls-1" cx="22.73" cy="17.07" r="0.23"/><circle class="cls-1" cx="21.38" cy="17.92" r="0.18"/><circle class="cls-1" cx="20.12" cy="18.9" r="0.13"/><path class="cls-1" d="M29,29.55a.07.07,0,0,1-.11,0,.08.08,0,0,1,0-.1.07.07,0,0,1,.11,0A.08.08,0,0,1,29,29.55Z" transform="translate(-9.99 -9.51)"/><path class="cls-1" d="M27.94,30.73s0,0,0,0,0,0,0,0h0A0,0,0,0,1,27.94,30.73Z" transform="translate(-9.99 -9.51)"/><circle class="cls-2" cx="17.46" cy="21.84" r="0.53"/><circle class="cls-2" cx="16.61" cy="23.19" r="0.48"/><circle class="cls-2" cx="15.9" cy="24.61" r="0.43"/><circle class="cls-2" cx="15.34" cy="26.11" r="0.38"/><circle class="cls-2" cx="14.92" cy="27.65" r="0.33"/><circle class="cls-2" cx="14.67" cy="29.22" r="0.27"/><circle class="cls-2" cx="14.57" cy="30.81" r="0.22"/><circle class="cls-2" cx="14.64" cy="32.4" r="0.17"/><circle class="cls-2" cx="14.86" cy="33.98" r="0.12"/><circle class="cls-2" cx="15.23" cy="35.53" r="0.07"/><path class="cls-2" d="M25.76,46.53h0v0h0S25.76,46.52,25.76,46.53Z" transform="translate(-9.99 -9.51)"/><circle class="cls-1" cx="15.96" cy="37.5" r="0.53"/><circle class="cls-1" cx="16.68" cy="38.92" r="0.48"/><circle class="cls-1" cx="17.54" cy="40.26" r="0.43"/><circle class="cls-1" cx="18.53" cy="41.51" r="0.38"/><circle class="cls-1" cx="19.64" cy="42.65" r="0.33"/><circle class="cls-1" cx="20.86" cy="43.68" r="0.27"/><circle class="cls-1" cx="22.18" cy="44.58" r="0.22"/><circle class="cls-1" cx="23.58" cy="45.35" r="0.17"/><circle class="cls-1" cx="25.04" cy="45.97" r="0.12"/><path class="cls-1" d="M36.62,56a.08.08,0,0,1-.1,0,.07.07,0,0,1,0-.1.06.06,0,0,1,.09,0A.07.07,0,0,1,36.62,56Z" transform="translate(-9.99 -9.51)"/><path class="cls-1" d="M38.09,56.27h0s0,0,0,0h0Z" transform="translate(-9.99 -9.51)"/><circle class="cls-1" cx="43.25" cy="40.57" r="0.53"/><circle class="cls-1" cx="44.15" cy="39.25" r="0.48"/><circle class="cls-1" cx="44.91" cy="37.85" r="0.43"/><circle class="cls-1" cx="45.52" cy="36.38" r="0.38"/><circle class="cls-1" cx="45.98" cy="34.85" r="0.33"/><circle class="cls-1" cx="46.29" cy="33.29" r="0.28"/><circle class="cls-1" cx="46.44" cy="31.7" r="0.23"/><circle class="cls-1" cx="46.43" cy="30.11" r="0.18"/><path class="cls-1" d="M56.36,38.11a.13.13,0,1,1-.21-.15.13.13,0,0,1,.18,0A.13.13,0,0,1,56.36,38.11Z" transform="translate(-9.99 -9.51)"/><path class="cls-1" d="M56,36.52a.07.07,0,0,1-.11,0s0-.07,0-.11a.08.08,0,1,1,.13.09Z" transform="translate(-9.99 -9.51)"/><path class="cls-1" d="M55.47,35a0,0,0,0,1,0,0s0,0,0,0a0,0,0,0,1,0,0A0,0,0,0,1,55.47,35Z" transform="translate(-9.99 -9.51)"/><circle class="cls-2" cx="28.61" cy="46.82" r="0.53"/><circle class="cls-2" cx="30.2" cy="46.93" r="0.48"/><circle class="cls-2" cx="31.79" cy="46.88" r="0.43"/><circle class="cls-2" cx="33.37" cy="46.67" r="0.38"/><circle class="cls-2" cx="34.92" cy="46.31" r="0.33"/><circle class="cls-2" cx="36.43" cy="45.79" r="0.28"/><path class="cls-2" d="M48.06,54.77a.23.23,0,0,1-.32,0,.23.23,0,1,1,.32,0Z" transform="translate(-9.99 -9.51)"/><circle class="cls-2" cx="39.26" cy="44.32" r="0.18"/><path class="cls-2" d="M50.64,53a.14.14,0,0,1-.18,0,.13.13,0,1,1,.18,0Z" transform="translate(-9.99 -9.51)"/><path class="cls-2" d="M51.78,51.87a.07.07,0,0,1-.12-.08.07.07,0,0,1,.1,0A.07.07,0,0,1,51.78,51.87Z" transform="translate(-9.99 -9.51)"/><path class="cls-2" d="M52.81,50.67h0a0,0,0,0,1,0,0h0A0,0,0,0,1,52.81,50.67Z" transform="translate(-9.99 -9.51)"/><circle class="cls-2" cx="45.09" cy="24.53" r="0.53"/><circle class="cls-2" cx="44.37" cy="23.11" r="0.48"/><circle class="cls-2" cx="43.52" cy="21.76" r="0.43"/><circle class="cls-2" cx="42.53" cy="20.51" r="0.38"/><circle class="cls-2" cx="41.42" cy="19.36" r="0.33"/><circle class="cls-2" cx="40.21" cy="18.33" r="0.28"/><circle class="cls-2" cx="38.89" cy="17.43" r="0.23"/><path class="cls-2" d="M47.64,26.28a.19.19,0,1,1,0-.26A.19.19,0,0,1,47.64,26.28Z" transform="translate(-9.99 -9.51)"/><circle class="cls-2" cx="36.03" cy="16.03" r="0.13"/><circle class="cls-2" cx="34.51" cy="15.55" r="0.08"/><circle class="cls-2" cx="32.95" cy="15.23" r="0.03"/><circle class="cls-1" cx="34.84" cy="13.81" r="0.59"/><circle class="cls-1" cx="33.1" cy="13.47" r="0.53"/><circle class="cls-1" cx="31.34" cy="13.3" r="0.48"/><circle class="cls-1" cx="29.57" cy="13.3" r="0.42"/><circle class="cls-1" cx="27.81" cy="13.48" r="0.37"/><circle class="cls-1" cx="26.08" cy="13.84" r="0.31"/><circle class="cls-1" cx="24.38" cy="14.36" r="0.25"/><circle class="cls-1" cx="22.76" cy="15.06" r="0.2"/><circle class="cls-1" cx="21.2" cy="15.91" r="0.14"/><path class="cls-1" d="M29.8,26.49a.08.08,0,1,1,0-.12A.09.09,0,0,1,29.8,26.49Z" transform="translate(-9.99 -9.51)"/><path class="cls-1" d="M28.41,27.6h0a0,0,0,0,1,0,0h0A0,0,0,0,1,28.41,27.6Z" transform="translate(-9.99 -9.51)"/><circle class="cls-2" cx="17.78" cy="18.68" r="0.59"/><circle class="cls-2" cx="16.61" cy="20.01" r="0.53"/><circle class="cls-2" cx="15.58" cy="21.45" r="0.48"/><circle class="cls-2" cx="14.71" cy="22.99" r="0.42"/><circle class="cls-2" cx="13.99" cy="24.61" r="0.36"/><circle class="cls-2" cx="13.43" cy="26.29" r="0.3"/><circle class="cls-2" cx="13.05" cy="28.02" r="0.25"/><circle class="cls-2" cx="12.84" cy="29.78" r="0.19"/><circle class="cls-2" cx="12.81" cy="31.55" r="0.13"/><circle class="cls-2" cx="12.95" cy="33.32" r="0.08"/><path class="cls-2" d="M23.27,44.56h0a0,0,0,0,1,0,0h0A0,0,0,0,1,23.27,44.56Z" transform="translate(-9.99 -9.51)"/><circle class="cls-1" cx="13.41" cy="35.6" r="0.59"/><circle class="cls-1" cx="13.95" cy="37.29" r="0.53"/><circle class="cls-1" cx="14.66" cy="38.91" r="0.48"/><circle class="cls-1" cx="15.53" cy="40.45" r="0.42"/><circle class="cls-1" cx="16.55" cy="41.9" r="0.36"/><circle class="cls-1" cx="17.72" cy="43.24" r="0.3"/><circle class="cls-1" cx="19" cy="44.46" r="0.25"/><circle class="cls-1" cx="20.4" cy="45.54" r="0.19"/><circle class="cls-1" cx="21.91" cy="46.48" r="0.13"/><path class="cls-1" d="M33.54,56.82a.07.07,0,1,1,0-.1A.07.07,0,0,1,33.54,56.82Z" transform="translate(-9.99 -9.51)"/><path class="cls-1" d="M35.11,57.39h0a0,0,0,0,1,0,0h0A0,0,0,0,1,35.11,57.39Z" transform="translate(-9.99 -9.51)"/><circle class="cls-1" cx="42.82" cy="43.72" r="0.59"/><circle class="cls-1" cx="44.04" cy="42.43" r="0.53"/><circle class="cls-1" cx="45.11" cy="41.02" r="0.48"/><circle class="cls-1" cx="46.04" cy="39.51" r="0.42"/><circle class="cls-1" cx="46.82" cy="37.92" r="0.37"/><circle class="cls-1" cx="47.43" cy="36.26" r="0.31"/><circle class="cls-1" cx="47.87" cy="34.54" r="0.26"/><circle class="cls-1" cx="48.13" cy="32.79" r="0.2"/><path class="cls-1" d="M58.32,40.64a.17.17,0,0,1-.21,0,.15.15,0,0,1,.21-.21A.17.17,0,0,1,58.32,40.64Z" transform="translate(-9.99 -9.51)"/><path class="cls-1" d="M58.19,38.83a.09.09,0,0,1-.12,0,.09.09,0,0,1,0-.13.09.09,0,0,1,.12,0A.09.09,0,0,1,58.19,38.83Z" transform="translate(-9.99 -9.51)"/><path class="cls-1" d="M57.89,37h0a0,0,0,0,1,0,0,0,0,0,0,1,0,0A0,0,0,0,1,57.89,37Z" transform="translate(-9.99 -9.51)"/><circle class="cls-2" cx="25.67" cy="48.03" r="0.59"/><circle class="cls-2" cx="27.4" cy="48.43" r="0.53"/><circle class="cls-2" cx="29.16" cy="48.65" r="0.48"/><circle class="cls-2" cx="30.93" cy="48.7" r="0.42"/><circle class="cls-2" cx="32.69" cy="48.57" r="0.36"/><circle class="cls-2" cx="34.44" cy="48.26" r="0.31"/><path class="cls-2" d="M46.31,57.48a.25.25,0,0,1-.36-.36.25.25,0,0,1,.36.36Z" transform="translate(-9.99 -9.51)"/><circle class="cls-2" cx="37.79" cy="47.14" r="0.19"/><path class="cls-2" d="M49.46,55.94a.13.13,0,0,1-.2,0,.14.14,0,0,1,0-.19.13.13,0,0,1,.2,0A.14.14,0,0,1,49.46,55.94Z" transform="translate(-9.99 -9.51)"/><path class="cls-2" d="M50.9,54.94a.08.08,0,0,1-.11,0,.08.08,0,0,1,.11-.11A.08.08,0,0,1,50.9,54.94Z" transform="translate(-9.99 -9.51)"/><path class="cls-2" d="M52.25,53.8a0,0,0,0,1,0,0,0,0,0,0,1,0,0h0A0,0,0,0,1,52.25,53.8Z" transform="translate(-9.99 -9.51)"/><circle class="cls-2" cx="47.63" cy="26.44" r="0.59"/><circle class="cls-2" cx="47.09" cy="24.75" r="0.53"/><circle class="cls-2" cx="46.39" cy="23.12" r="0.48"/><circle class="cls-2" cx="45.52" cy="21.58" r="0.42"/><circle class="cls-2" cx="44.51" cy="20.13" r="0.37"/><circle class="cls-2" cx="43.35" cy="18.78" r="0.31"/><circle class="cls-2" cx="42.07" cy="17.56" r="0.26"/><path class="cls-2" d="M50.8,26.13a.19.19,0,0,1-.28,0,.21.21,0,0,1,0-.29.21.21,0,0,1,.28,0A.21.21,0,0,1,50.8,26.13Z" transform="translate(-9.99 -9.51)"/><circle class="cls-2" cx="39.17" cy="15.53" r="0.15"/><circle class="cls-2" cx="37.58" cy="14.74" r="0.09"/><circle class="cls-2" cx="35.92" cy="14.12" r="0.04"/><circle class="cls-1" cx="38.25" cy="12.89" r="0.66"/><circle class="cls-1" cx="36.4" cy="12.21" r="0.59"/><circle class="cls-1" cx="34.5" cy="11.72" r="0.53"/><circle class="cls-1" cx="32.55" cy="11.41" r="0.47"/><circle class="cls-1" cx="30.59" cy="11.31" r="0.41"/><circle class="cls-1" cx="28.62" cy="11.4" r="0.34"/><circle class="cls-1" cx="26.68" cy="11.68" r="0.28"/><circle class="cls-1" cx="24.77" cy="12.16" r="0.22"/><circle class="cls-1" cx="22.92" cy="12.83" r="0.16"/><path class="cls-1" d="M31.19,23.26a.09.09,0,0,1-.13,0,.09.09,0,0,1,.15-.11A.09.09,0,0,1,31.19,23.26Z" transform="translate(-9.99 -9.51)"/><path class="cls-1" d="M29.47,24.24s0,0,0,0a0,0,0,0,1,0,0,0,0,0,0,1,0,0S29.49,24.23,29.47,24.24Z" transform="translate(-9.99 -9.51)"/><circle class="cls-2" cx="18.68" cy="15.27" r="0.66"/><circle class="cls-2" cx="17.17" cy="16.53" r="0.59"/><circle class="cls-2" cx="15.79" cy="17.93" r="0.53"/><circle class="cls-2" cx="14.55" cy="19.46" r="0.47"/><circle class="cls-2" cx="13.48" cy="21.12" r="0.4"/><circle class="cls-2" cx="12.58" cy="22.87" r="0.34"/><circle class="cls-2" cx="11.86" cy="24.7" r="0.27"/><circle class="cls-2" cx="11.33" cy="26.59" r="0.21"/><circle class="cls-2" cx="10.99" cy="28.53" r="0.15"/><circle class="cls-2" cx="10.84" cy="30.49" r="0.08"/><path class="cls-2" d="M20.89,42h0a0,0,0,0,1,0,0h0A0,0,0,0,1,20.89,42Z" transform="translate(-9.99 -9.51)"/><circle class="cls-1" cx="10.94" cy="33.08" r="0.66"/><circle class="cls-1" cx="11.25" cy="35.02" r="0.59"/><circle class="cls-1" cx="11.74" cy="36.93" r="0.53"/><circle class="cls-1" cx="12.43" cy="38.77" r="0.47"/><circle class="cls-1" cx="13.3" cy="40.54" r="0.4"/><circle class="cls-1" cx="14.34" cy="42.21" r="0.34"/><circle class="cls-1" cx="15.54" cy="43.77" r="0.27"/><circle class="cls-1" cx="16.89" cy="45.2" r="0.21"/><circle class="cls-1" cx="18.38" cy="46.49" r="0.15"/><path class="cls-1" d="M30,57.2a.09.09,0,0,1-.12,0,.09.09,0,1,1,.14-.1A.09.09,0,0,1,30,57.2Z" transform="translate(-9.99 -9.51)"/><path class="cls-1" d="M31.65,58.09h0a0,0,0,0,1,0,0h0S31.66,58.09,31.65,58.09Z" transform="translate(-9.99 -9.51)"/><circle class="cls-1" cx="41.81" cy="47.1" r="0.66"/><circle class="cls-1" cx="43.37" cy="45.9" r="0.59"/><circle class="cls-1" cx="44.79" cy="44.54" r="0.53"/><circle class="cls-1" cx="46.08" cy="43.04" r="0.47"/><circle class="cls-1" cx="47.2" cy="41.43" r="0.41"/><circle class="cls-1" cx="48.16" cy="39.71" r="0.35"/><circle class="cls-1" cx="48.94" cy="37.9" r="0.29"/><circle class="cls-1" cx="49.54" cy="36.03" r="0.22"/><path class="cls-1" d="M60,43.75a.17.17,0,1,1-.19-.27.16.16,0,0,1,.22,0A.16.16,0,0,1,60,43.75Z" transform="translate(-9.99 -9.51)"/><path class="cls-1" d="M60.21,41.74a.11.11,0,0,1-.14,0,.09.09,0,0,1,0-.14.1.1,0,1,1,.12.16Z" transform="translate(-9.99 -9.51)"/><path class="cls-1" d="M60.19,39.72a0,0,0,0,1,0,0,0,0,0,0,1,0-.06,0,0,0,0,1,.06,0S60.21,39.71,60.19,39.72Z" transform="translate(-9.99 -9.51)"/><circle class="cls-2" cx="22.24" cy="48.85" r="0.66"/><circle class="cls-2" cx="24.06" cy="49.58" r="0.59"/><circle class="cls-2" cx="25.95" cy="50.13" r="0.53"/><circle class="cls-2" cx="27.89" cy="50.49" r="0.47"/><circle class="cls-2" cx="29.85" cy="50.66" r="0.4"/><circle class="cls-2" cx="31.81" cy="50.63" r="0.34"/><path class="cls-2" d="M43.92,60.14a.29.29,0,0,1-.39-.06.28.28,0,1,1,.39.06Z" transform="translate(-9.99 -9.51)"/><circle class="cls-2" cx="35.69" cy="49.98" r="0.22"/><path class="cls-2" d="M47.64,59a.15.15,0,0,1-.21,0,.16.16,0,0,1,0-.22.16.16,0,0,1,.22,0A.15.15,0,0,1,47.64,59Z" transform="translate(-9.99 -9.51)"/><path class="cls-2" d="M49.4,58.16a.09.09,0,0,1-.1-.15.08.08,0,0,1,.12,0A.09.09,0,0,1,49.4,58.16Z" transform="translate(-9.99 -9.51)"/><path class="cls-2" d="M51.08,57.13a0,0,0,0,1,0,0s0,0,0,0,0,0,0,0A0,0,0,0,1,51.08,57.13Z" transform="translate(-9.99 -9.51)"/><circle class="cls-2" cx="50.09" cy="28.97" r="0.66"/><circle class="cls-2" cx="49.79" cy="27.02" r="0.59"/><circle class="cls-2" cx="49.3" cy="25.12" r="0.53"/><circle class="cls-2" cx="48.62" cy="23.27" r="0.47"/><circle class="cls-2" cx="47.76" cy="21.5" r="0.41"/><circle class="cls-2" cx="46.72" cy="19.83" r="0.35"/><circle class="cls-2" cx="45.53" cy="18.26" r="0.29"/><path class="cls-2" d="M54.31,26.52a.24.24,0,0,1-.32-.05.22.22,0,0,1,0-.31.23.23,0,0,1,.32.05A.22.22,0,0,1,54.31,26.52Z" transform="translate(-9.99 -9.51)"/><circle class="cls-2" cx="42.7" cy="15.53" r="0.16"/><circle class="cls-2" cx="41.09" cy="14.39" r="0.1"/><circle class="cls-2" cx="39.38" cy="13.42" r="0.04"/><circle class="cls-1" cx="42.15" cy="12.47" r="0.73"/><circle class="cls-1" cx="40.24" cy="11.4" r="0.66"/><circle class="cls-1" cx="38.23" cy="10.53" r="0.59"/><circle class="cls-1" cx="36.15" cy="9.86" r="0.52"/><circle class="cls-1" cx="34.02" cy="9.4" r="0.45"/><circle class="cls-1" cx="31.84" cy="9.16" r="0.38"/><circle class="cls-1" cx="29.66" cy="9.13" r="0.31"/><circle class="cls-1" cx="27.48" cy="9.32" r="0.24"/><circle class="cls-1" cx="25.33" cy="9.74" r="0.17"/><path class="cls-1" d="M33.28,20a.11.11,0,0,1-.14,0,.1.1,0,0,1,0-.14.11.11,0,0,1,.14,0A.1.1,0,0,1,33.28,20Z" transform="translate(-9.99 -9.51)"/><path class="cls-1" d="M31.22,20.73a0,0,0,0,1,0,0,0,0,0,0,1,0,0s0,0,0,0S31.24,20.73,31.22,20.73Z" transform="translate(-9.99 -9.51)"/><circle class="cls-2" cx="20.26" cy="11.68" r="0.73"/><circle class="cls-2" cx="18.38" cy="12.8" r="0.66"/><circle class="cls-2" cx="16.62" cy="14.1" r="0.59"/><circle class="cls-2" cx="15" cy="15.57" r="0.52"/><circle class="cls-2" cx="13.54" cy="17.19" r="0.45"/><circle class="cls-2" cx="12.25" cy="18.96" r="0.38"/><circle class="cls-2" cx="11.14" cy="20.84" r="0.31"/><circle class="cls-2" cx="10.23" cy="22.83" r="0.23"/><circle class="cls-2" cx="9.51" cy="24.9" r="0.16"/><circle class="cls-2" cx="9.01" cy="27.03" r="0.09"/><path class="cls-2" d="M18.72,38.69h0s0,0,0,0a0,0,0,0,1,0,0S18.73,38.68,18.72,38.69Z" transform="translate(-9.99 -9.51)"/><circle class="cls-1" cx="8.67" cy="29.88" r="0.73"/><circle class="cls-1" cx="8.67" cy="32.07" r="0.66"/><circle class="cls-1" cx="8.88" cy="34.24" r="0.59"/><circle class="cls-1" cx="9.31" cy="36.39" r="0.52"/><circle class="cls-1" cx="9.96" cy="38.48" r="0.45"/><circle class="cls-1" cx="10.81" cy="40.49" r="0.38"/><circle class="cls-1" cx="11.86" cy="42.41" r="0.3"/><circle class="cls-1" cx="13.09" cy="44.22" r="0.23"/><circle class="cls-1" cx="14.5" cy="45.89" r="0.16"/><path class="cls-1" d="M26.1,57a.09.09,0,1,1-.08-.16.09.09,0,0,1,.08.16Z" transform="translate(-9.99 -9.51)"/><path class="cls-1" d="M27.73,58.27h0a0,0,0,0,1,0,0,0,0,0,0,1,0,0S27.74,58.26,27.73,58.27Z" transform="translate(-9.99 -9.51)"/><circle class="cls-1" cx="40.11" cy="50.63" r="0.73"/><circle class="cls-1" cx="42.03" cy="49.58" r="0.66"/><circle class="cls-1" cx="43.83" cy="48.34" r="0.59"/><circle class="cls-1" cx="45.5" cy="46.92" r="0.52"/><circle class="cls-1" cx="47.01" cy="45.35" r="0.45"/><circle class="cls-1" cx="48.36" cy="43.63" r="0.39"/><circle class="cls-1" cx="49.53" cy="41.78" r="0.32"/><circle class="cls-1" cx="50.51" cy="39.82" r="0.25"/><path class="cls-1" d="M61.37,47.46a.19.19,0,0,1-.25-.08.18.18,0,0,1,.08-.24.19.19,0,0,1,.25.07A.19.19,0,0,1,61.37,47.46Z" transform="translate(-9.99 -9.51)"/><path class="cls-1" d="M61.91,45.28a.11.11,0,0,1-.15,0,.1.1,0,0,1,.05-.15.11.11,0,0,1,.15,0A.1.1,0,0,1,61.91,45.28Z" transform="translate(-9.99 -9.51)"/><path class="cls-1" d="M62.24,43.07a0,0,0,1,1,0-.06A0,0,0,0,1,62.24,43.07Z" transform="translate(-9.99 -9.51)"/><circle class="cls-2" cx="18.33" cy="49.15" r="0.73"/><circle class="cls-2" cx="20.2" cy="50.27" r="0.66"/><circle class="cls-2" cx="22.18" cy="51.21" r="0.59"/><circle class="cls-2" cx="24.24" cy="51.94" r="0.52"/><circle class="cls-2" cx="26.36" cy="52.46" r="0.45"/><circle class="cls-2" cx="28.53" cy="52.77" r="0.38"/><path class="cls-2" d="M40.84,62.65a.3.3,0,0,1-.41-.14.31.31,0,0,1,.13-.42.32.32,0,0,1,.42.14A.31.31,0,0,1,40.84,62.65Z" transform="translate(-9.99 -9.51)"/><circle class="cls-2" cx="32.89" cy="52.73" r="0.24"/><path class="cls-2" d="M45.12,62.05a.17.17,0,0,1-.23-.08.17.17,0,1,1,.23.08Z" transform="translate(-9.99 -9.51)"/><path class="cls-2" d="M47.2,61.42a.09.09,0,0,1-.13,0,.1.1,0,0,1,0-.14.11.11,0,0,1,.14,0A.1.1,0,0,1,47.2,61.42Z" transform="translate(-9.99 -9.51)"/><path class="cls-2" d="M49.22,60.59s0,0,0,0,0,0,0,0,0,0,0,0S49.23,60.58,49.22,60.59Z" transform="translate(-9.99 -9.51)"/><circle class="cls-2" cx="52.35" cy="32.17" r="0.73"/><circle class="cls-2" cx="52.36" cy="29.99" r="0.66"/><circle class="cls-2" cx="52.15" cy="27.81" r="0.59"/><circle class="cls-2" cx="51.72" cy="25.67" r="0.52"/><circle class="cls-2" cx="51.09" cy="23.57" r="0.45"/><circle class="cls-2" cx="50.24" cy="21.56" r="0.39"/><circle class="cls-2" cx="49.2" cy="19.63" r="0.32"/><path class="cls-2" d="M58.08,27.56a.25.25,0,0,1-.33-.11.24.24,0,0,1,.1-.34.26.26,0,0,1,.34.11A.26.26,0,0,1,58.08,27.56Z" transform="translate(-9.99 -9.51)"/><circle class="cls-2" cx="46.57" cy="16.14" r="0.18"/><circle class="cls-2" cx="45.01" cy="14.61" r="0.11"/><circle class="cls-2" cx="43.3" cy="13.25" r="0.04"/><circle class="cls-1" cx="46.5" cy="12.69" r="0.81"/><circle class="cls-1" cx="44.59" cy="11.19" r="0.73"/><circle class="cls-1" cx="42.54" cy="9.88" r="0.66"/><circle class="cls-1" cx="40.37" cy="8.78" r="0.58"/><circle class="cls-1" cx="38.11" cy="7.91" r="0.5"/><circle class="cls-1" cx="35.77" cy="7.26" r="0.42"/><circle class="cls-1" cx="33.37" cy="6.85" r="0.35"/><circle class="cls-1" cx="30.95" cy="6.69" r="0.27"/><circle class="cls-1" cx="28.52" cy="6.76" r="0.19"/><path class="cls-1" d="M36.14,16.71a.11.11,0,0,1-.14-.08.11.11,0,0,1,.07-.14.12.12,0,0,1,.15.07A.12.12,0,0,1,36.14,16.71Z" transform="translate(-9.99 -9.51)"/><path class="cls-1" d="M33.76,17.2s0,0,0,0a0,0,0,0,1,0-.05.05.05,0,0,1,.05,0A0,0,0,0,1,33.76,17.2Z" transform="translate(-9.99 -9.51)"/><circle class="cls-2" cx="22.62" cy="8.01" r="0.81"/><circle class="cls-2" cx="20.36" cy="8.91" r="0.73"/><circle class="cls-2" cx="18.2" cy="10.04" r="0.65"/><circle class="cls-2" cx="16.17" cy="11.37" r="0.57"/><circle class="cls-2" cx="14.28" cy="12.9" r="0.5"/><circle class="cls-2" cx="12.56" cy="14.61" r="0.42"/><circle class="cls-2" cx="11.02" cy="16.49" r="0.34"/><circle class="cls-2" cx="9.67" cy="18.51" r="0.26"/><circle class="cls-2" cx="8.52" cy="20.65" r="0.18"/><circle class="cls-2" cx="7.6" cy="22.9" r="0.1"/><path class="cls-2" d="M16.92,34.72s0,0,0,0,0,0,0,0a0,0,0,0,1,0,0S16.93,34.72,16.92,34.72Z" transform="translate(-9.99 -9.51)"/><circle class="cls-1" cx="6.73" cy="25.98" r="0.81"/><circle class="cls-1" cx="6.35" cy="28.38" r="0.73"/><circle class="cls-1" cx="6.21" cy="30.8" r="0.65"/><circle class="cls-1" cx="6.31" cy="33.23" r="0.57"/><circle class="cls-1" cx="6.66" cy="35.63" r="0.5"/><circle class="cls-1" cx="7.24" cy="37.99" r="0.42"/><circle class="cls-1" cx="8.06" cy="40.28" r="0.34"/><circle class="cls-1" cx="9.09" cy="42.48" r="0.26"/><circle class="cls-1" cx="10.35" cy="44.56" r="0.18"/><path class="cls-1" d="M21.83,56.12a.12.12,0,0,1-.13-.07.1.1,0,0,1,.2-.06A.12.12,0,0,1,21.83,56.12Z" transform="translate(-9.99 -9.51)"/><path class="cls-1" d="M23.4,57.78s0,0,0,0,0,0,0,0,0,0,0,0A0,0,0,0,1,23.4,57.78Z" transform="translate(-9.99 -9.51)"/><circle class="cls-1" cx="37.63" cy="54.22" r="0.81"/><circle class="cls-1" cx="39.92" cy="53.4" r="0.73"/><circle class="cls-1" cx="42.11" cy="52.35" r="0.66"/><circle class="cls-1" cx="44.19" cy="51.08" r="0.58"/><circle class="cls-1" cx="46.12" cy="49.61" r="0.5"/><circle class="cls-1" cx="47.9" cy="47.96" r="0.43"/><circle class="cls-1" cx="49.51" cy="46.14" r="0.35"/><circle class="cls-1" cx="50.93" cy="44.16" r="0.28"/><path class="cls-1" d="M62.19,51.76a.2.2,0,0,1-.25-.13.19.19,0,0,1,.13-.25.2.2,0,0,1,.25.13A.21.21,0,0,1,62.19,51.76Z" transform="translate(-9.99 -9.51)"/><path class="cls-1" d="M63.16,49.47a.12.12,0,1,1,.08-.15A.12.12,0,0,1,63.16,49.47Z" transform="translate(-9.99 -9.51)"/><path class="cls-1" d="M63.91,47.1s0,0-.06,0a0,0,0,0,1,0-.06,0,0,0,0,1,.06,0A0,0,0,0,1,63.91,47.1Z" transform="translate(-9.99 -9.51)"/><circle class="cls-2" cx="13.98" cy="48.8" r="0.81"/><circle class="cls-2" cx="15.85" cy="50.36" r="0.73"/><circle class="cls-2" cx="17.85" cy="51.73" r="0.65"/><circle class="cls-2" cx="19.99" cy="52.89" r="0.58"/><circle class="cls-2" cx="22.23" cy="53.83" r="0.5"/><circle class="cls-2" cx="24.55" cy="54.54" r="0.42"/><path class="cls-2" d="M37,64.86a.35.35,0,0,1-.44-.22.34.34,0,0,1,.22-.43.35.35,0,0,1,.44.22A.34.34,0,0,1,37,64.86Z" transform="translate(-9.99 -9.51)"/><circle class="cls-2" cx="29.35" cy="55.26" r="0.27"/><path class="cls-2" d="M41.83,65a.19.19,0,0,1-.24-.12.19.19,0,0,1,.36-.12A.19.19,0,0,1,41.83,65Z" transform="translate(-9.99 -9.51)"/><path class="cls-2" d="M44.22,64.62a.11.11,0,1,1,.07-.14A.1.1,0,0,1,44.22,64.62Z" transform="translate(-9.99 -9.51)"/><path class="cls-2" d="M46.57,64.06s0,0,0,0a0,0,0,0,1,0-.05.05.05,0,0,1,.05,0A.05.05,0,0,1,46.57,64.06Z" transform="translate(-9.99 -9.51)"/><circle class="cls-2" cx="54.27" cy="36.08" r="0.81"/><circle class="cls-2" cx="54.66" cy="33.69" r="0.73"/><circle class="cls-2" cx="54.81" cy="31.26" r="0.66"/><circle class="cls-2" cx="54.72" cy="28.83" r="0.58"/><circle class="cls-2" cx="54.38" cy="26.43" r="0.51"/><circle class="cls-2" cx="53.8" cy="24.07" r="0.43"/><circle class="cls-2" cx="53" cy="21.77" r="0.35"/><path class="cls-2" d="M62,29.35a.28.28,0,0,1-.35-.18.29.29,0,0,1,.18-.35.29.29,0,0,1,.35.18A.27.27,0,0,1,62,29.35Z" transform="translate(-9.99 -9.51)"/><circle class="cls-2" cx="50.72" cy="17.49" r="0.2"/><circle class="cls-2" cx="49.27" cy="15.54" r="0.12"/><circle class="cls-2" cx="47.63" cy="13.74" r="0.05"/><circle class="cls-1" cx="51.24" cy="13.69" r="0.9"/><circle class="cls-1" cx="49.4" cy="11.7" r="0.81"/><circle class="cls-1" cx="47.38" cy="9.91" r="0.73"/><circle class="cls-1" cx="45.19" cy="8.33" r="0.64"/><circle class="cls-1" cx="42.86" cy="6.98" r="0.56"/><circle class="cls-1" cx="40.4" cy="5.86" r="0.47"/><circle class="cls-1" cx="37.85" cy="5" r="0.39"/><circle class="cls-1" cx="35.22" cy="4.4" r="0.3"/><circle class="cls-1" cx="32.54" cy="4.06" r="0.21"/><path class="cls-1" d="M39.85,13.63a.12.12,0,0,1-.14-.1.13.13,0,0,1,.1-.15.13.13,0,0,1,.15.11A.12.12,0,0,1,39.85,13.63Z" transform="translate(-9.99 -9.51)"/><path class="cls-1" d="M37.15,13.75a0,0,0,0,1,0,0s0-.05,0-.05,0,0,0,0A0,0,0,0,1,37.15,13.75Z" transform="translate(-9.99 -9.51)"/><circle class="cls-2" cx="25.84" cy="4.4" r="0.9"/><circle class="cls-2" cx="23.21" cy="5" r="0.81"/><circle class="cls-2" cx="20.65" cy="5.86" r="0.73"/><circle class="cls-2" cx="18.18" cy="6.97" r="0.64"/><circle class="cls-2" cx="15.85" cy="8.32" r="0.55"/><circle class="cls-2" cx="13.66" cy="9.9" r="0.46"/><circle class="cls-2" cx="11.64" cy="11.69" r="0.38"/><circle class="cls-2" cx="9.8" cy="13.67" r="0.29"/><circle class="cls-2" cx="8.18" cy="15.82" r="0.2"/><circle class="cls-2" cx="6.77" cy="18.13" r="0.12"/><path class="cls-2" d="M15.62,30.06s0,0,0,0,0,0,0,0,0,0,0,0S15.64,30.06,15.62,30.06Z" transform="translate(-9.99 -9.51)"/><circle class="cls-1" cx="5.29" cy="21.36" r="0.9"/><circle class="cls-1" cx="4.45" cy="23.92" r="0.81"/><circle class="cls-1" cx="3.87" cy="26.56" r="0.73"/><circle class="cls-1" cx="3.56" cy="29.24" r="0.64"/><circle class="cls-1" cx="3.52" cy="31.94" r="0.55"/><circle class="cls-1" cx="3.76" cy="34.63" r="0.46"/><circle class="cls-1" cx="4.25" cy="37.28" r="0.38"/><circle class="cls-1" cx="5.01" cy="39.88" r="0.29"/><circle class="cls-1" cx="6.02" cy="42.38" r="0.2"/><path class="cls-1" d="M17.3,54.39a.11.11,0,0,1,0-.22.11.11,0,1,1,0,.22Z" transform="translate(-9.99 -9.51)"/><path class="cls-1" d="M18.73,56.49s0,0,0,0,0,0,0,0,0,0,0,0S18.74,56.49,18.73,56.49Z" transform="translate(-9.99 -9.51)"/><circle class="cls-1" cx="34.29" cy="57.72" r="0.9"/><circle class="cls-1" cx="36.94" cy="57.21" r="0.82"/><circle class="cls-1" cx="39.53" cy="56.44" r="0.73"/><circle class="cls-1" cx="42.03" cy="55.42" r="0.65"/><circle class="cls-1" cx="44.41" cy="54.14" r="0.56"/><circle class="cls-1" cx="46.65" cy="52.64" r="0.48"/><circle class="cls-1" cx="48.73" cy="50.91" r="0.39"/><circle class="cls-1" cx="50.62" cy="48.99" r="0.31"/><path class="cls-1" d="M62.35,56.63a.24.24,0,0,1-.26-.19.22.22,0,0,1,.19-.25.22.22,0,0,1,.25.18A.23.23,0,0,1,62.35,56.63Z" transform="translate(-9.99 -9.51)"/><path class="cls-1" d="M63.81,54.28a.14.14,0,0,1,0-.27.15.15,0,0,1,.16.12A.13.13,0,0,1,63.81,54.28Z" transform="translate(-9.99 -9.51)"/><path class="cls-1" d="M65.05,51.81s-.06,0-.06,0a0,0,0,0,1,0-.06s0,0,.06,0A.07.07,0,0,1,65.05,51.81Z" transform="translate(-9.99 -9.51)"/><circle class="cls-2" cx="9.28" cy="47.66" r="0.9"/><circle class="cls-2" cx="11.05" cy="49.7" r="0.81"/><circle class="cls-2" cx="13.02" cy="51.55" r="0.73"/><circle class="cls-2" cx="15.16" cy="53.19" r="0.64"/><circle class="cls-2" cx="17.45" cy="54.61" r="0.56"/><circle class="cls-2" cx="19.87" cy="55.8" r="0.47"/><path class="cls-2" d="M32.45,66.63a.38.38,0,0,1-.12-.75.38.38,0,1,1,.12.75Z" transform="translate(-9.99 -9.51)"/><circle class="cls-2" cx="25.01" cy="57.42" r="0.3"/><path class="cls-2" d="M37.71,67.56a.22.22,0,0,1-.25-.18.22.22,0,0,1,.18-.24.21.21,0,0,1,.07.42Z" transform="translate(-9.99 -9.51)"/><path class="cls-2" d="M40.39,67.62a.13.13,0,1,1,0-.25.12.12,0,0,1,.14.11A.12.12,0,0,1,40.39,67.62Z" transform="translate(-9.99 -9.51)"/><path class="cls-2" d="M43.07,67.41s0,0,0,0,0,0,0,0a0,0,0,0,1,0,0S43.09,67.41,43.07,67.41Z" transform="translate(-9.99 -9.51)"/><circle class="cls-2" cx="55.7" cy="40.71" r="0.9"/><circle class="cls-2" cx="56.54" cy="38.15" r="0.82"/><circle class="cls-2" cx="57.13" cy="35.51" r="0.73"/><circle class="cls-2" cx="57.45" cy="32.83" r="0.65"/><circle class="cls-2" cx="57.5" cy="30.13" r="0.56"/><circle class="cls-2" cx="57.27" cy="27.44" r="0.48"/><circle class="cls-2" cx="56.79" cy="24.78" r="0.39"/><path class="cls-2" d="M66.08,32a.31.31,0,0,1-.35-.26.3.3,0,0,1,.6-.1A.31.31,0,0,1,66.08,32Z" transform="translate(-9.99 -9.51)"/><circle class="cls-2" cx="55.03" cy="19.68" r="0.22"/><circle class="cls-2" cx="53.78" cy="17.29" r="0.14"/><circle class="cls-2" cx="52.3" cy="15.04" r="0.05"/><circle class="cls-1" cx="56.26" cy="15.6" r="1"/><circle class="cls-1" cx="54.6" cy="13.11" r="0.9"/><circle class="cls-1" cx="52.69" cy="10.79" r="0.81"/><circle class="cls-1" cx="50.56" cy="8.68" r="0.71"/><circle class="cls-1" cx="48.24" cy="6.79" r="0.62"/><circle class="cls-1" cx="45.73" cy="5.14" r="0.52"/><circle class="cls-1" cx="43.08" cy="3.74" r="0.43"/><circle class="cls-1" cx="40.3" cy="2.62" r="0.33"/><circle class="cls-1" cx="37.42" cy="1.79" r="0.24"/><path class="cls-1" d="M44.46,10.9a.14.14,0,1,1,.14-.14A.14.14,0,0,1,44.46,10.9Z" transform="translate(-9.99 -9.51)"/><path class="cls-1" d="M41.47,10.56a0,0,0,0,1,0,0,.05.05,0,0,1,.1,0A0,0,0,0,1,41.47,10.56Z" transform="translate(-9.99 -9.51)"/><circle class="cls-2" cx="30.01" cy="1" r="1"/><circle class="cls-2" cx="27.01" cy="1.2" r="0.9"/><circle class="cls-2" cx="24.05" cy="1.69" r="0.81"/><circle class="cls-2" cx="21.16" cy="2.48" r="0.71"/><circle class="cls-2" cx="18.36" cy="3.56" r="0.61"/><circle class="cls-2" cx="15.68" cy="4.91" r="0.52"/><circle class="cls-2" cx="13.15" cy="6.52" r="0.42"/><circle class="cls-2" cx="10.8" cy="8.38" r="0.32"/><circle class="cls-2" cx="8.64" cy="10.46" r="0.22"/><circle class="cls-2" cx="6.7" cy="12.75" r="0.13"/><path class="cls-2" d="M15,24.72a0,0,0,0,1,0,0,0,0,0,1,1,.06,0A0,0,0,0,1,15,24.72Z" transform="translate(-9.99 -9.51)"/><circle class="cls-1" cx="4.5" cy="16.03" r="1"/><circle class="cls-1" cx="3.14" cy="18.7" r="0.9"/><circle class="cls-1" cx="2.05" cy="21.5" r="0.81"/><circle class="cls-1" cx="1.24" cy="24.38" r="0.71"/><circle class="cls-1" cx="0.73" cy="27.34" r="0.61"/><circle class="cls-1" cx="0.51" cy="30.33" r="0.51"/><circle class="cls-1" cx="0.6" cy="33.33" r="0.42"/><circle class="cls-1" cx="0.98" cy="36.31" r="0.32"/><circle class="cls-1" cx="1.66" cy="39.23" r="0.22"/><path class="cls-1" d="M12.62,51.71a.13.13,0,0,1-.13-.13.13.13,0,0,1,.26,0A.13.13,0,0,1,12.62,51.71Z" transform="translate(-9.99 -9.51)"/><path class="cls-1" d="M13.83,54.26a0,0,0,0,1,0,0,0,0,0,0,1,0,0l0,0A0,0,0,0,1,13.83,54.26Z" transform="translate(-9.99 -9.51)"/><circle class="cls-1" cx="30.01" cy="60.97" r="1"/><circle class="cls-1" cx="33.01" cy="60.88" r="0.91"/><circle class="cls-1" cx="35.98" cy="60.49" r="0.81"/><circle class="cls-1" cx="38.9" cy="59.8" r="0.72"/><circle class="cls-1" cx="41.74" cy="58.81" r="0.62"/><circle class="cls-1" cx="44.46" cy="57.55" r="0.53"/><circle class="cls-1" cx="47.04" cy="56.02" r="0.43"/><circle class="cls-1" cx="49.45" cy="54.24" r="0.34"/><path class="cls-1" d="M61.67,62a.25.25,0,1,1,.25-.24A.25.25,0,0,1,61.67,62Z" transform="translate(-9.99 -9.51)"/><path class="cls-1" d="M63.69,59.68a.16.16,0,0,1-.16-.16.16.16,0,0,1,.16-.15.15.15,0,0,1,.15.15A.16.16,0,0,1,63.69,59.68Z" transform="translate(-9.99 -9.51)"/><path class="cls-1" d="M65.47,57.18a.06.06,0,1,1,.06-.06A.06.06,0,0,1,65.47,57.18Z" transform="translate(-9.99 -9.51)"/><circle class="cls-2" cx="4.31" cy="45.6" r="1"/><circle class="cls-2" cx="5.9" cy="48.14" r="0.9"/><circle class="cls-2" cx="7.74" cy="50.51" r="0.81"/><circle class="cls-2" cx="9.8" cy="52.69" r="0.71"/><circle class="cls-2" cx="12.07" cy="54.65" r="0.62"/><circle class="cls-2" cx="14.52" cy="56.37" r="0.52"/><path class="cls-2" d="M27.13,67.78a.43.43,0,1,1,0-.85.43.43,0,0,1,0,.85Z" transform="translate(-9.99 -9.51)"/><circle class="cls-2" cx="19.88" cy="59.04" r="0.33"/><path class="cls-2" d="M32.73,69.71a.24.24,0,1,1,0-.47.24.24,0,0,1,0,.47Z" transform="translate(-9.99 -9.51)"/><path class="cls-2" d="M35.66,70.24a.14.14,0,0,1-.14-.14.14.14,0,0,1,.28,0A.14.14,0,0,1,35.66,70.24Z" transform="translate(-9.99 -9.51)"/><path class="cls-2" d="M38.64,70.48a0,0,0,0,1,0,0,0,0,0,0,1,0,0,0,0,0,0,1,0,0A0,0,0,0,1,38.64,70.48Z" transform="translate(-9.99 -9.51)"/><circle class="cls-2" cx="56.46" cy="46.03" r="1"/><circle class="cls-2" cx="57.83" cy="43.37" r="0.91"/><circle class="cls-2" cx="58.94" cy="40.58" r="0.81"/><circle class="cls-2" cx="59.75" cy="37.69" r="0.72"/><circle class="cls-2" cx="60.27" cy="34.74" r="0.62"/><circle class="cls-2" cx="60.5" cy="31.75" r="0.53"/><circle class="cls-2" cx="60.43" cy="28.75" r="0.44"/><path class="cls-2" d="M70.05,35.62a.34.34,0,1,1,0-.68.34.34,0,0,1,0,.68Z" transform="translate(-9.99 -9.51)"/><circle class="cls-2" cx="59.39" cy="22.84" r="0.25"/><circle class="cls-2" cx="58.43" cy="20" r="0.15"/><circle class="cls-2" cx="57.19" cy="17.27" r="0.06"/></svg>